# xmcd
#
# Track frame offsets: 
#        150
#        11894
#        24603
#        32645
#        42749
#        58098
#        69147
#        79886
#        94473
#        105215
#        116615
#        130515
#        150358
#        166932
#        177236
#
# Disc length: 2561 seconds
#
# Revision: 0
# Processed by: cddbd v1.5.2PL0 Copyright (c) Steve Scherf et al.
# Submitted via: ExactAudioCopy v0.99pb4
#
DISCID=b909ff0f
DTITLE=Red Rivers - No Place To Cruise
DYEAR=2000
DGENRE=CountryBlues
TTITLE0=Rockin" My Blues
TTITLE1=Roadtrain
TTITLE2=Quarter Mile Down
TTITLE3=My Gals A Rocker
TTITLE4=Lorraine
TTITLE5=Other Side Of lonliness
TTITLE6=Ready Rockn' Daddy
TTITLE7=Hoola Hoop
TTITLE8=Sugar Talk
TTITLE9=Hilbilly Heart
TTITLE10=Outside Man
TTITLE11=Hug You Kiss You
TTITLE12=Smalltown Motel Blues
TTITLE13=One More Time
TTITLE14=Twanging Up A Storm
EXTD=
EXTT0=
EXTT1=
EXTT2=
EXTT3=
EXTT4=
EXTT5=
EXTT6=
EXTT7=
EXTT8=
EXTT9=
EXTT10=
EXTT11=
EXTT12=
EXTT13=
EXTT14=
PLAYORDER=
